<svg xmlns="http://www.w3.org/2000/svg" viewBox="0 0 1057.31 366.81"><g style="isolation:isolate"><path d="M130.86,304.32c2.17,1.51,4.36,3,6.53,4.5v31l-8.7-7c-6.6-5.26-13.1-10.59-19.61-15.88l-4.93-4-2.7-2.27-2.56-2.35A80.68,80.68,0,0,1,90,298.44a61,61,0,0,1-10.74-21.67,51.28,51.28,0,0,1-1.47-11.31,47.5,47.5,0,0,1,.22-5.61l.33-2.77.5-2.76c3-14.65,12.06-28.81,27.1-39.52a86.9,86.9,0,0,1,26.48-12.59A90.64,90.64,0,0,1,163.66,199a86.1,86.1,0,0,0-28.37,6.75,68.67,68.67,0,0,0-20.64,13.67,55.45,55.45,0,0,0-12.1,17.28,47.22,47.22,0,0,0-4.1,18.64v2.34l.13,2.35c0,.78.16,1.55.23,2.33l.37,2.28a44.1,44.1,0,0,0,2.75,8.94A55.67,55.67,0,0,0,113,290.05a82.46,82.46,0,0,0,8,7.27l2.22,1.7,2.31,1.64Z" transform="translate(-70.32 -198.73)" fill="#944286"/><path d="M143,312.83v31.53l-8.1-6.61V307.16l1.57,1.1Q139.71,310.56,143,312.83Z" transform="translate(-70.32 -198.73)" fill="#1d1d1b" opacity="0.5" style="mix-blend-mode:darken"/><path d="M188.51,239.53c0-14.54-9.86-25.81-25.33-25.81-15,0-25.79,11.27-25.79,25.81,0,14.08,10.32,25.33,24.85,25.33C178.65,264.86,189,253.61,188.51,239.53Z" transform="translate(-70.32 -198.73)" fill="#2a6890"/><path d="M188.54,301.35v14.53l-18.17,11.83c-1,.65-2,1.31-3,2Q155.64,337.4,144,345.15c-2.21,1.47-4.41,2.93-6.61,4.41V301.35Z" transform="translate(-70.32 -198.73)" fill="#2a6890"/><path d="M188.54,333.27v134.5c-.7.34-1.42.67-2.13,1a61.1,61.1,0,0,1-20,4.85,62.18,62.18,0,0,1-20.8-2,59.52,59.52,0,0,1-8.24-2.89V375.39q4.4-3.54,8.74-7.1c4.46-3.61,8.88-7.24,13.31-10.88q10.91-9,21.73-18l3.8-3.16Z" transform="translate(-70.32 -198.73)" fill="#2a6890"/><path d="M257.37,427.29A60.43,60.43,0,0,1,251.69,451a71.7,71.7,0,0,1-16.06,22,93.93,93.93,0,0,1-27.52,17.71,113.91,113.91,0,0,1-37.94,8.76,119.46,119.46,0,0,1-39.88-4.4,97.91,97.91,0,0,1-31.24-15.25A77.33,77.33,0,0,1,79.57,459,61,61,0,0,1,71,435.93a62.52,62.52,0,0,1-.57-11.74,51,51,0,0,1,2-11.82,64.43,64.43,0,0,1,11.88-22.21,80.73,80.73,0,0,1,9.4-9.9c1.77-1.55,3.56-3.08,5.49-4.55.93-.74,1.9-1.47,2.9-2.16s2-1.48,2.9-2.05c7.2-4.91,14.39-9.82,21.66-14.68l10.82-7.26c2.2-1.48,4.4-2.94,6.61-4.41q11.64-7.75,23.35-15.46c1-.67,2-1.33,3-2l18.17-11.83,4-2.59,11.14-7.16,2.77-1.79,2.6-1.71c1.69-1.18,3.39-2.35,4.94-3.61,12.79-9.91,21.51-22.43,24.43-36,1.57,13.7-4,28.05-15.4,40.27-1.4,1.54-2.94,3-4.5,4.52L216.05,310l-2.39,2-9.51,8.12-15.61,13.15-3.57,3-3.8,3.16q-10.83,9-21.73,18c-4.43,3.64-8.85,7.27-13.31,10.88q-4.35,3.57-8.74,7.1-5.43,4.39-10.9,8.78c-.89.7-1.47,1.23-2.19,1.83s-1.37,1.18-2,1.79c-1.33,1.18-2.53,2.44-3.73,3.68a64,64,0,0,0-6.2,7.78,43.87,43.87,0,0,0-7,16.64,40.67,40.67,0,0,0-.65,8.54,48,48,0,0,0,1.14,8.68,49.08,49.08,0,0,0,7.38,16.34A54.47,54.47,0,0,0,127,463a63.73,63.73,0,0,0,10.39,5.73,59.52,59.52,0,0,0,8.24,2.89,62.18,62.18,0,0,0,20.8,2,61.1,61.1,0,0,0,20-4.85c.71-.31,1.43-.64,2.13-1a56.32,56.32,0,0,0,14.3-9.85c9.35-8.76,14.55-20,15-31.3a33.26,33.26,0,0,0,0-4.23,40.82,40.82,0,0,0-.4-4.11,39.25,39.25,0,0,0-2.29-8.15,51.83,51.83,0,0,0-9.88-15.42,65.6,65.6,0,0,0-7.37-7l-1-.83c-.3-.25-.8-.63-1.2-.94l-2.49-2-4.73-3.68V344.66l6.21,4.4c7.06,5,14.11,10,21.08,15.05l5.25,3.77,2.61,1.89,1.36,1,1.48,1.13a99,99,0,0,1,11,9.54,72.58,72.58,0,0,1,15.12,21.88,58.37,58.37,0,0,1,3.77,11.91,54.45,54.45,0,0,1,.82,6.08A48.32,48.32,0,0,1,257.37,427.29Z" transform="translate(-70.32 -198.73)" fill="#944286"/><path d="M188.54,314v7.5l-18.17,11.82-3,2Q155.63,343,144,350.78l-6.61,4.42v-7.6c.28-.2.57-.39.87-.58,7.44-5,15.1-10,23.37-15.47l2-1.33,1-.66,22.17-14.43Z" transform="translate(-70.32 -198.73)" fill="#1d1d1b" opacity="0.5" style="mix-blend-mode:darken"/><path d="M188.54,464.24v7c-.7.34-1.42.67-2.13,1a61.1,61.1,0,0,1-20,4.85,62.7,62.7,0,0,1-20.8-2,60,60,0,0,1-8.24-2.89v-6.65c1.46.8,2.94,1.54,4.47,2.2a50,50,0,0,0,20,4.15c1.23,0,2.47-.05,3.7-.13a50.16,50.16,0,0,0,16.39-4c.62-.27,1.22-.55,1.81-.83A49,49,0,0,0,188.54,464.24Z" transform="translate(-70.32 -198.73)" fill="#1d1d1b" opacity="0.5" style="mix-blend-mode:darken"/><path d="M188.54,330.49v4.85s-49,44-51.15,45.7v-8.43q4.4-3.54,8.74-7.1c4.46-3.61,8.88-7.25,13.31-10.88q10.91-9,21.73-18l3.8-3.16Z" transform="translate(-70.32 -198.73)" fill="#1d1d1b" opacity="0.5" style="mix-blend-mode:darken"/><path d="M257.37,427.29A60.43,60.43,0,0,1,251.69,451a71.7,71.7,0,0,1-16.06,22,93.93,93.93,0,0,1-27.52,17.71,113.91,113.91,0,0,1-37.94,8.76,119.46,119.46,0,0,1-39.88-4.4,97.91,97.91,0,0,1-31.24-15.25A77.49,77.49,0,0,1,79.57,459,60.76,60.76,0,0,1,71,435.93a61.66,61.66,0,0,1-.58-11.74,51,51,0,0,1,2-11.82,64.29,64.29,0,0,1,11.89-22.21,80.63,80.63,0,0,1,9.39-9.9c1.77-1.55,3.56-3.08,5.49-4.55.93-.74,1.9-1.47,2.9-2.16s2-1.48,2.9-2.05c7.2-4.91,14.4-9.82,21.67-14.68l10.81-7.26,6.61-4.41q11.64-7.75,23.36-15.46c1-.67,2-1.33,3-2l18.17-11.83,4-2.59,11.14-7.16,2.77-1.79,2.6-1.71c1.69-1.18,3.39-2.35,4.94-3.61,12.79-9.91,21.51-22.43,24.43-36,1.57,13.7-4,28.05-15.4,40.27-1.4,1.54-2.94,3-4.5,4.52L216.05,310,213.66,312l-9.51,8.11-15.61,13.15-3.57,3-3.8,3.16q-10.83,9-21.73,18c-4.43,3.64-8.85,7.27-13.31,10.88q-4.35,3.57-8.74,7.1l-.1.08c-3.57,2.9-7.19,5.81-10.8,8.7-.44.35-.81.66-1.16,1l0,0c-.33.28-.63.55-1,.83-.7.57-1.38,1.18-2,1.79-1.33,1.18-2.53,2.44-3.73,3.68a64.87,64.87,0,0,0-4.94,6c-.43.59-.86,1.18-1.26,1.78a44,44,0,0,0-7,16.64,40.67,40.67,0,0,0-.65,8.54,48,48,0,0,0,1.14,8.68,48.91,48.91,0,0,0,7.39,16.34A54.27,54.27,0,0,0,127,463a62.68,62.68,0,0,0,7.67,4.47l.39.19c.77.37,1.54.73,2.33,1.07a60,60,0,0,0,8.24,2.89,62.18,62.18,0,0,0,20.8,2,61.1,61.1,0,0,0,20-4.85c.71-.31,1.43-.64,2.13-1a56.42,56.42,0,0,0,5.81-3.23h0a55,55,0,0,0,8.47-6.61c9.35-8.76,14.55-20,15-31.3a33.26,33.26,0,0,0,0-4.23,40.82,40.82,0,0,0-.4-4.11,39.25,39.25,0,0,0-2.29-8.15A44.61,44.61,0,0,0,209.64,400a67.63,67.63,0,0,0-4.29-5.33,65.6,65.6,0,0,0-7.37-7l-1-.83c-.3-.25-.8-.63-1.2-.94l-2.5-2-4.73-3.68V344.66l6.21,4.4c7.06,5,14.11,10,21.08,15.05l5.25,3.77,2.61,1.89,1.36,1,1.48,1.13a99,99,0,0,1,11,9.54,72.58,72.58,0,0,1,15.12,21.88,58.4,58.4,0,0,1,3.78,11.91,56.86,56.86,0,0,1,.81,6.08A48.32,48.32,0,0,1,257.37,427.29Z" transform="translate(-70.32 -198.73)" fill="#944286"/><path d="M188.54,344.67l1.49,1.05c.62.44,1.24.89,1.87,1.32v35.9c-.27-.21-.6-.45-.87-.67l-2.47-1.94h0Z" transform="translate(-70.32 -198.73)" fill="#1d1d1b" opacity="0.5" style="mix-blend-mode:darken"/><path d="M233.59,398.9q0-7.48-.46-14t-.47-11.93H250c0,3,.07,5.93.23,8.89s.23,6,.23,9.12h.47a31.78,31.78,0,0,1,5.26-7.72,38.36,38.36,0,0,1,8.07-6.67,43.64,43.64,0,0,1,23.16-6.43A47.89,47.89,0,0,1,306,373.41a34.79,34.79,0,0,1,13,9.12,37.05,37.05,0,0,1,7.61,14.15A64,64,0,0,1,329,414.81V482.4H310.78V416.68q0-13.8-6.08-21.75t-18.95-8a35.66,35.66,0,0,0-15.32,3,27.13,27.13,0,0,0-10.52,8.66A38.8,38.8,0,0,0,253.82,412a68.72,68.72,0,0,0-2,17.07V482.4H233.59Z" transform="translate(-70.32 -198.73)" fill="#2a6890"/><path d="M373,388.2h-23.9V372.74H373V348.13a83.71,83.71,0,0,1,1.88-18.39,37.54,37.54,0,0,1,6.44-14.42,30.56,30.56,0,0,1,12.07-9.49q7.5-3.39,18.51-3.39a43.1,43.1,0,0,1,7.5.7,21.52,21.52,0,0,1,6.56,2.11l-2.58,16.4A37,37,0,0,0,411,319.31q-7,0-11,2.46a15.27,15.27,0,0,0-6,6.79A29,29,0,0,0,391.67,339q-.35,6.11-.35,13.12v20.63H418V388.2H391.32v94.2H373Z" transform="translate(-70.32 -198.73)" fill="#2a6890"/><path d="M436,317a14.11,14.11,0,0,1,4.2-10.16,14.42,14.42,0,0,1,20.58,0A14.6,14.6,0,1,1,436,317Zm4.58,53.16h19.82V482.4H440.59Z" transform="translate(-70.32 -198.73)" fill="#2a6890"/><path d="M498.3,398.9q0-7.48-.47-14t-.47-11.93h17.31c0,3,.08,5.93.23,8.89s.24,6,.24,9.12h.47a31.5,31.5,0,0,1,5.26-7.72,38.36,38.36,0,0,1,8.07-6.67,43.57,43.57,0,0,1,23.15-6.43,48,48,0,0,1,18.6,3.28,34.87,34.87,0,0,1,13,9.12,37,37,0,0,1,7.6,14.15,63.63,63.63,0,0,1,2.46,18.13V482.4H575.48V416.68q0-13.8-6.08-21.75t-18.94-8a35.63,35.63,0,0,0-15.32,3,27.24,27.24,0,0,0-10.53,8.66A38.61,38.61,0,0,0,518.53,412a68.24,68.24,0,0,0-2,17.07V482.4H498.3Z" transform="translate(-70.32 -198.73)" fill="#2a6890"/><path d="M627.09,316.48a14.13,14.13,0,0,1,4.21-10.19,14.44,14.44,0,0,1,20.64,0,14.64,14.64,0,1,1-24.85,10.19Zm4.59,53.65h19.88V482.4H631.68Z" transform="translate(-70.32 -198.73)" fill="#2a6890"/><path d="M767.4,400.3a37.13,37.13,0,0,0-12.63-10.17,35.16,35.16,0,0,0-15-3.16,39.06,39.06,0,0,0-16.14,3.16,31.14,31.14,0,0,0-11.58,8.77,39.15,39.15,0,0,0-6.9,13,51.89,51.89,0,0,0-2.34,15.79,45.78,45.78,0,0,0,2.69,15.79,41.78,41.78,0,0,0,7.49,13,33.69,33.69,0,0,0,11.57,8.77,35.53,35.53,0,0,0,15.21,3.16q18,0,27.83-13.57l13.57,12.87A47.73,47.73,0,0,1,762.48,481a64.49,64.49,0,0,1-45.84,0,50,50,0,0,1-17.89-11.93,54.91,54.91,0,0,1-11.46-18.24,63.38,63.38,0,0,1-4.1-23.16,62.7,62.7,0,0,1,4.1-22.92,53.87,53.87,0,0,1,11.57-18.25,53,53,0,0,1,17.9-12,59.52,59.52,0,0,1,23-4.33,63.38,63.38,0,0,1,23,4.21,50.55,50.55,0,0,1,19.07,13.1Z" transform="translate(-70.32 -198.73)" fill="#2a6890"/><path d="M814.88,453.63a45.85,45.85,0,0,0,11.81,10.76q6.42,4,16.25,4a40,40,0,0,0,8.54-.94,25.71,25.71,0,0,0,7.84-3,17.4,17.4,0,0,0,5.61-5.26,13.42,13.42,0,0,0,2.1-7.6,12.3,12.3,0,0,0-2-7.25,17.6,17.6,0,0,0-5.27-4.8,30.07,30.07,0,0,0-7.48-3.16c-2.81-.77-5.69-1.48-8.66-2.1q-7.71-1.64-14.73-3.74a48.28,48.28,0,0,1-12.28-5.5,25.78,25.78,0,0,1-8.42-8.77q-3.16-5.38-3.16-13.8a27.55,27.55,0,0,1,3.51-14,30.33,30.33,0,0,1,9.36-10.06A45.67,45.67,0,0,1,831,372.24a53.25,53.25,0,0,1,15-2.11,50.17,50.17,0,0,1,21.64,4.68A33.75,33.75,0,0,1,883.17,390L868,400.07a28.27,28.27,0,0,0-9.24-9.47A25.49,25.49,0,0,0,844.81,387a32.45,32.45,0,0,0-7.6.94,23.64,23.64,0,0,0-6.9,2.81,16.32,16.32,0,0,0-5,4.79,11.61,11.61,0,0,0-2,6.67,8.52,8.52,0,0,0,2.22,6,19.64,19.64,0,0,0,6.08,4.33,52.17,52.17,0,0,0,8.89,3.27,104.5,104.5,0,0,0,10.4,2.34,105.43,105.43,0,0,1,13.8,3.63,40,40,0,0,1,11.47,6,26.49,26.49,0,0,1,7.71,9.36,30.52,30.52,0,0,1,2.81,13.8q0,9.35-3.74,15.9A30.93,30.93,0,0,1,873,477.37a43.7,43.7,0,0,1-14,6,69.08,69.08,0,0,1-16,1.87q-14,0-24.21-4.33t-18.36-16Z" transform="translate(-70.32 -198.73)" fill="#2a6890"/><path d="M255.9,542.46a16.81,16.81,0,0,1-6.53,5.36,20.67,20.67,0,0,1-8.24,1.53,17.26,17.26,0,0,1-7-1.38,16.07,16.07,0,0,1-5.29-3.73,16.36,16.36,0,0,1-3.33-5.54,19.66,19.66,0,0,1-1.17-6.82,19.06,19.06,0,0,1,1.27-7.06,16.63,16.63,0,0,1,3.55-5.54,16.13,16.13,0,0,1,5.4-3.58,17.66,17.66,0,0,1,6.82-1.28,17.05,17.05,0,0,1,6.39,1.17,13.87,13.87,0,0,1,5,3.41,15.24,15.24,0,0,1,3.23,5.47,22,22,0,0,1,1.14,7.34v1.78H230.27a11.58,11.58,0,0,0,1,4.08,11.79,11.79,0,0,0,2.31,3.41,10.69,10.69,0,0,0,3.33,2.31,10.19,10.19,0,0,0,4.19.85,13.28,13.28,0,0,0,6.11-1.28,13.8,13.8,0,0,0,4.47-3.76Zm-4.76-13.56a9.51,9.51,0,0,0-2.77-6.81,9.91,9.91,0,0,0-7.24-2.56,10.24,10.24,0,0,0-10.86,9.37Z" transform="translate(-70.32 -198.73)" fill="#944286"/><path d="M265.7,523.15c0-1.51-.05-2.93-.14-4.26s-.15-2.53-.15-3.62h5.26c0,.9,0,1.8.07,2.7s.07,1.82.07,2.77H271a9.29,9.29,0,0,1,1.6-2.34,11.42,11.42,0,0,1,2.45-2,13.12,13.12,0,0,1,7-2,14.59,14.59,0,0,1,5.64,1,10.67,10.67,0,0,1,3.94,2.77,11.35,11.35,0,0,1,2.31,4.3,19.2,19.2,0,0,1,.75,5.5V548.5h-5.54v-20a10.61,10.61,0,0,0-1.85-6.6q-1.84-2.41-5.75-2.42a10.86,10.86,0,0,0-4.65.92,8.28,8.28,0,0,0-3.19,2.63,11.78,11.78,0,0,0-1.85,4,20.87,20.87,0,0,0-.6,5.18V548.5H265.7Z" transform="translate(-70.32 -198.73)" fill="#944286"/><path d="M323.35,520h-9.8v16.61c0,1.09,0,2.1.07,3a6.28,6.28,0,0,0,.57,2.41,3.86,3.86,0,0,0,1.49,1.64,5.53,5.53,0,0,0,2.84.6A12,12,0,0,0,321,544a10.47,10.47,0,0,0,2.41-.86l.21,5a12.41,12.41,0,0,1-3.16.93,20.42,20.42,0,0,1-3.3.28,12,12,0,0,1-4.75-.78,6.38,6.38,0,0,1-2.77-2.2,8.22,8.22,0,0,1-1.32-3.52,31.25,31.25,0,0,1-.32-4.65V520h-7.24v-4.69H308v-9.44h5.54v9.44h9.8Z" transform="translate(-70.32 -198.73)" fill="#944286"/><path d="M359.84,542.46a16.67,16.67,0,0,1-6.53,5.36,20.66,20.66,0,0,1-8.23,1.53,17.19,17.19,0,0,1-7-1.38,15.86,15.86,0,0,1-5.29-3.73,16.23,16.23,0,0,1-3.34-5.54,19.66,19.66,0,0,1-1.17-6.82,18.86,18.86,0,0,1,1.28-7.06,16.32,16.32,0,0,1,3.55-5.54,16,16,0,0,1,5.39-3.58,17.7,17.7,0,0,1,6.82-1.28,17,17,0,0,1,6.39,1.17,13.79,13.79,0,0,1,5,3.41,15.1,15.1,0,0,1,3.23,5.47,22,22,0,0,1,1.14,7.34v1.78H334.21a12,12,0,0,0,3.34,7.49,10.74,10.74,0,0,0,3.34,2.31,10.12,10.12,0,0,0,4.19.85,13.26,13.26,0,0,0,6.1-1.28,13.7,13.7,0,0,0,4.47-3.76Zm-4.75-13.56a9.55,9.55,0,0,0-2.77-6.81,9.92,9.92,0,0,0-7.24-2.56,10.24,10.24,0,0,0-10.87,9.37Z" transform="translate(-70.32 -198.73)" fill="#944286"/><path d="M369.64,523.15c0-1.51-.05-2.93-.14-4.26s-.14-2.53-.14-3.62h5.25c0,.9,0,1.8.07,2.7s.07,1.82.07,2.77h.15a9.24,9.24,0,0,1,1.59-2.34,11.67,11.67,0,0,1,2.45-2,13.19,13.19,0,0,1,7-2,8.72,8.72,0,0,1,1.14.07,5.19,5.19,0,0,1,1.13.28l-.35,5.61a10.47,10.47,0,0,0-3-.42c-3.41,0-5.89,1.1-7.42,3.3s-2.31,5.22-2.31,9V548.5h-5.54Z" transform="translate(-70.32 -198.73)" fill="#944286"/><path d="M394.35,515.27h5.54v4.83H400a16.23,16.23,0,0,1,5.29-4.19,14.81,14.81,0,0,1,6.64-1.49,18.86,18.86,0,0,1,7.13,1.31,15.88,15.88,0,0,1,5.5,3.66,16.72,16.72,0,0,1,3.55,5.54,19.54,19.54,0,0,1,0,13.91,17.11,17.11,0,0,1-3.51,5.54,16,16,0,0,1-5.29,3.66,16.42,16.42,0,0,1-6.53,1.31,15.42,15.42,0,0,1-7.85-2,12.64,12.64,0,0,1-4.93-4.79h-.14v22.08h-5.54Zm5.54,16.61a14.18,14.18,0,0,0,.81,4.87,11.41,11.41,0,0,0,2.38,3.9,11.26,11.26,0,0,0,3.73,2.63,12.81,12.81,0,0,0,9.73,0,11.27,11.27,0,0,0,6.1-6.53,14.84,14.84,0,0,0,0-9.73,11.27,11.27,0,0,0-6.1-6.53,12.81,12.81,0,0,0-9.73,0,11.26,11.26,0,0,0-3.73,2.63,11.41,11.41,0,0,0-2.38,3.9A14.16,14.16,0,0,0,399.89,531.88Z" transform="translate(-70.32 -198.73)" fill="#944286"/><path d="M438,523.15c0-1.51-.05-2.93-.14-4.26s-.14-2.53-.14-3.62H443c0,.9,0,1.8.07,2.7s.07,1.82.07,2.77h.15a9.51,9.51,0,0,1,1.59-2.34,11.67,11.67,0,0,1,2.45-2,13.19,13.19,0,0,1,7-2,8.72,8.72,0,0,1,1.14.07,5.27,5.27,0,0,1,1.14.28l-.36,5.61a10.47,10.47,0,0,0-3-.42q-5.11,0-7.42,3.3t-2.31,9V548.5H438Z" transform="translate(-70.32 -198.73)" fill="#944286"/><path d="M462.22,502.28a3.94,3.94,0,0,1,1.17-2.84,4,4,0,0,1,5.76,0,4.08,4.08,0,1,1-6.93,2.84Zm1.28,13H469V548.5H463.5Z" transform="translate(-70.32 -198.73)" fill="#944286"/><path d="M480.75,539.77a14,14,0,0,0,3.59,3.26,9.19,9.19,0,0,0,4.93,1.21,12.92,12.92,0,0,0,2.6-.28,7.72,7.72,0,0,0,2.37-.93,5.26,5.26,0,0,0,1.71-1.6,4.06,4.06,0,0,0,.64-2.3,3.72,3.72,0,0,0-.61-2.2,5.21,5.21,0,0,0-1.59-1.46,9.25,9.25,0,0,0-2.28-1c-.85-.23-1.72-.45-2.62-.64-1.57-.33-3.06-.71-4.48-1.13a14.8,14.8,0,0,1-3.72-1.67,7.85,7.85,0,0,1-2.56-2.66,8.2,8.2,0,0,1-1-4.19,8.37,8.37,0,0,1,1.07-4.26,9.23,9.23,0,0,1,2.84-3.06,13.88,13.88,0,0,1,4-1.84,16.09,16.09,0,0,1,4.55-.64,15.16,15.16,0,0,1,6.56,1.42,10.23,10.23,0,0,1,4.73,4.61l-4.62,3.06a8.57,8.57,0,0,0-2.8-2.88,7.79,7.79,0,0,0-4.23-1.1,9.81,9.81,0,0,0-2.31.29,6.85,6.85,0,0,0-2.09.85,5,5,0,0,0-1.53,1.45,3.54,3.54,0,0,0-.6,2A2.6,2.6,0,0,0,484,526a6.13,6.13,0,0,0,1.85,1.31,15.61,15.61,0,0,0,2.7,1,28.52,28.52,0,0,0,3.16.71,33.34,33.34,0,0,1,4.19,1.1,12.73,12.73,0,0,1,3.48,1.81,8.17,8.17,0,0,1,2.34,2.84,9.31,9.31,0,0,1,.85,4.19,9.64,9.64,0,0,1-1.13,4.83,9.45,9.45,0,0,1-3,3.23,13.34,13.34,0,0,1-4.26,1.81,20.86,20.86,0,0,1-4.87.57,18.73,18.73,0,0,1-7.34-1.31,13.4,13.4,0,0,1-5.58-4.87Z" transform="translate(-70.32 -198.73)" fill="#944286"/><path d="M540,542.46a16.81,16.81,0,0,1-6.53,5.36,20.71,20.71,0,0,1-8.24,1.53,17.23,17.23,0,0,1-7-1.38,16,16,0,0,1-5.29-3.73,16.39,16.39,0,0,1-3.34-5.54,19.66,19.66,0,0,1-1.17-6.82,19.06,19.06,0,0,1,1.28-7.06,16.32,16.32,0,0,1,3.55-5.54,15.93,15.93,0,0,1,5.4-3.58,17.65,17.65,0,0,1,6.81-1.28,17,17,0,0,1,6.39,1.17,13.91,13.91,0,0,1,5,3.41,15.38,15.38,0,0,1,3.23,5.47,22.23,22.23,0,0,1,1.13,7.34v1.78H514.34a11.37,11.37,0,0,0,1,4.08,12,12,0,0,0,2.3,3.41,10.74,10.74,0,0,0,3.34,2.31,10.16,10.16,0,0,0,4.19.85,13.23,13.23,0,0,0,6.1-1.28,13.84,13.84,0,0,0,4.48-3.76Zm-4.76-13.56a9.51,9.51,0,0,0-2.77-6.81,9.91,9.91,0,0,0-7.24-2.56,10.23,10.23,0,0,0-10.86,9.37Z" transform="translate(-70.32 -198.73)" fill="#944286"/><path d="M569.5,523.15c0-1.51,0-2.93-.14-4.26s-.14-2.53-.14-3.62h5.25c0,.9,0,1.8.07,2.7s.08,1.82.08,2.77h.14a9.51,9.51,0,0,1,1.59-2.34,11.67,11.67,0,0,1,2.45-2,13.19,13.19,0,0,1,7-2,8.72,8.72,0,0,1,1.14.07,5.27,5.27,0,0,1,1.14.28l-.36,5.61a10.47,10.47,0,0,0-3-.42q-5.12,0-7.42,3.3t-2.31,9V548.5H569.5Z" transform="translate(-70.32 -198.73)" fill="#944286"/><path d="M622.89,542.46a16.67,16.67,0,0,1-6.53,5.36,20.62,20.62,0,0,1-8.23,1.53,17.19,17.19,0,0,1-7-1.38,15.86,15.86,0,0,1-5.29-3.73,16.23,16.23,0,0,1-3.34-5.54,19.66,19.66,0,0,1-1.17-6.82,19.06,19.06,0,0,1,1.28-7.06,16.32,16.32,0,0,1,3.55-5.54,16,16,0,0,1,5.39-3.58,17.73,17.73,0,0,1,6.82-1.28,17,17,0,0,1,6.39,1.17,13.91,13.91,0,0,1,5,3.41,15.38,15.38,0,0,1,3.23,5.47,22.23,22.23,0,0,1,1.13,7.34v1.78H597.26a12,12,0,0,0,3.34,7.49,10.74,10.74,0,0,0,3.34,2.31,10.16,10.16,0,0,0,4.19.85,13.23,13.23,0,0,0,6.1-1.28,13.84,13.84,0,0,0,4.48-3.76Zm-4.75-13.56a9.55,9.55,0,0,0-2.77-6.81,9.92,9.92,0,0,0-7.24-2.56,10.24,10.24,0,0,0-10.87,9.37Z" transform="translate(-70.32 -198.73)" fill="#944286"/><path d="M633.4,539.77A14,14,0,0,0,637,543a9.19,9.19,0,0,0,4.93,1.21,12.75,12.75,0,0,0,2.59-.28,7.68,7.68,0,0,0,2.38-.93,5.26,5.26,0,0,0,1.71-1.6,4.06,4.06,0,0,0,.64-2.3,3.72,3.72,0,0,0-.61-2.2,5.21,5.21,0,0,0-1.59-1.46,9.25,9.25,0,0,0-2.28-1c-.85-.23-1.72-.45-2.62-.64-1.57-.33-3.06-.71-4.48-1.13a14.8,14.8,0,0,1-3.72-1.67,7.85,7.85,0,0,1-2.56-2.66,8.2,8.2,0,0,1-1-4.19,8.37,8.37,0,0,1,1.07-4.26,9.23,9.23,0,0,1,2.84-3.06,13.76,13.76,0,0,1,4-1.84,16.09,16.09,0,0,1,4.55-.64,15.16,15.16,0,0,1,6.56,1.42,10.28,10.28,0,0,1,4.73,4.61l-4.62,3.06a8.57,8.57,0,0,0-2.8-2.88,7.79,7.79,0,0,0-4.23-1.1,9.75,9.75,0,0,0-2.31.29,6.85,6.85,0,0,0-2.09.85,4.93,4.93,0,0,0-1.53,1.45,3.54,3.54,0,0,0-.6,2,2.6,2.6,0,0,0,.67,1.81,6.13,6.13,0,0,0,1.85,1.31,15.61,15.61,0,0,0,2.7,1,28.52,28.52,0,0,0,3.16.71,33.34,33.34,0,0,1,4.19,1.1,12.73,12.73,0,0,1,3.48,1.81,8.17,8.17,0,0,1,2.34,2.84,9.31,9.31,0,0,1,.85,4.19,9.54,9.54,0,0,1-1.14,4.83,9.33,9.33,0,0,1-3,3.23,13.34,13.34,0,0,1-4.26,1.81,20.86,20.86,0,0,1-4.87.57,18.73,18.73,0,0,1-7.34-1.31,13.4,13.4,0,0,1-5.58-4.87Z" transform="translate(-70.32 -198.73)" fill="#944286"/><path d="M661,531.88a18,18,0,0,1,1.35-7.09,16.88,16.88,0,0,1,3.69-5.51,16.45,16.45,0,0,1,5.61-3.58,20.33,20.33,0,0,1,14.2,0,16.45,16.45,0,0,1,5.61,3.58,16.88,16.88,0,0,1,3.69,5.51,19.35,19.35,0,0,1,0,14.2,16.84,16.84,0,0,1-3.69,5.5,16.3,16.3,0,0,1-5.61,3.58,20.33,20.33,0,0,1-14.2,0,16.3,16.3,0,0,1-5.61-3.58,16.84,16.84,0,0,1-3.69-5.5A18.09,18.09,0,0,1,661,531.88Zm6,0a14.18,14.18,0,0,0,.81,4.87,11.41,11.41,0,0,0,2.38,3.9,11.16,11.16,0,0,0,3.73,2.63,12.78,12.78,0,0,0,9.72,0,11.25,11.25,0,0,0,6.11-6.53,14.84,14.84,0,0,0,0-9.73,11.25,11.25,0,0,0-6.11-6.53,12.78,12.78,0,0,0-9.72,0,11.16,11.16,0,0,0-3.73,2.63,11.41,11.41,0,0,0-2.38,3.9A14.16,14.16,0,0,0,667,531.88Z" transform="translate(-70.32 -198.73)" fill="#944286"/><path d="M734.08,540.62c0,1.51,0,2.93.14,4.26s.14,2.53.14,3.62h-5.25c0-.9,0-1.8-.07-2.7S729,544,729,543h-.14a9.8,9.8,0,0,1-1.6,2.35,11.68,11.68,0,0,1-2.45,2,13.19,13.19,0,0,1-7,2,14.59,14.59,0,0,1-5.64-1,10.67,10.67,0,0,1-3.94-2.77,11,11,0,0,1-2.31-4.3,19.2,19.2,0,0,1-.75-5.5V515.27h5.54v20a10.57,10.57,0,0,0,1.85,6.61c1.23,1.6,3.14,2.41,5.75,2.41a10.86,10.86,0,0,0,4.65-.92,8.27,8.27,0,0,0,3.19-2.63,11.78,11.78,0,0,0,1.85-4.05,20.87,20.87,0,0,0,.6-5.18V515.27h5.54Z" transform="translate(-70.32 -198.73)" fill="#944286"/><path d="M744.59,523.15c0-1.51-.05-2.93-.14-4.26s-.15-2.53-.15-3.62h5.26c0,.9,0,1.8.07,2.7s.07,1.82.07,2.77h.14a9.29,9.29,0,0,1,1.6-2.34,11.42,11.42,0,0,1,2.45-2,13.12,13.12,0,0,1,7-2,8.47,8.47,0,0,1,1.13.07,5.27,5.27,0,0,1,1.14.28l-.35,5.61a10.54,10.54,0,0,0-3-.42c-3.4,0-5.88,1.1-7.42,3.3s-2.3,5.22-2.3,9V548.5h-5.54Z" transform="translate(-70.32 -198.73)" fill="#944286"/><path d="M792,523.58a11.34,11.34,0,0,0-3.84-3.09,10.62,10.62,0,0,0-4.54-1,11.8,11.8,0,0,0-4.9,1,9.58,9.58,0,0,0-3.52,2.66,11.91,11.91,0,0,0-2.09,3.94,15.85,15.85,0,0,0-.71,4.79,13.75,13.75,0,0,0,.82,4.8,12.69,12.69,0,0,0,2.27,3.94,10.35,10.35,0,0,0,3.51,2.66,10.82,10.82,0,0,0,4.62,1,9.82,9.82,0,0,0,8.45-4.12l4.11,3.91a14.42,14.42,0,0,1-5.67,4,19.56,19.56,0,0,1-13.92,0,15.18,15.18,0,0,1-5.43-3.62,16.71,16.71,0,0,1-3.48-5.54,19.19,19.19,0,0,1-1.24-7,19,19,0,0,1,1.24-7,16.46,16.46,0,0,1,3.51-5.54,16.26,16.26,0,0,1,5.43-3.66,18.18,18.18,0,0,1,7-1.31,19,19,0,0,1,7,1.28,15.4,15.4,0,0,1,5.79,4Z" transform="translate(-70.32 -198.73)" fill="#944286"/><path d="M832.2,542.46a16.74,16.74,0,0,1-6.53,5.36,20.67,20.67,0,0,1-8.24,1.53,17.18,17.18,0,0,1-7-1.38,15.86,15.86,0,0,1-5.29-3.73,16.23,16.23,0,0,1-3.34-5.54,19.66,19.66,0,0,1-1.17-6.82,18.86,18.86,0,0,1,1.28-7.06,16.32,16.32,0,0,1,3.55-5.54,16,16,0,0,1,5.39-3.58,17.7,17.7,0,0,1,6.82-1.28,17,17,0,0,1,6.39,1.17,13.79,13.79,0,0,1,5,3.41,15.1,15.1,0,0,1,3.23,5.47,22,22,0,0,1,1.14,7.34v1.78H806.57a12,12,0,0,0,3.34,7.49,10.62,10.62,0,0,0,3.34,2.31,10.11,10.11,0,0,0,4.18.85,13.28,13.28,0,0,0,6.11-1.28A13.7,13.7,0,0,0,828,539.2Zm-4.75-13.56a9.55,9.55,0,0,0-2.77-6.81,10,10,0,0,0-7.25-2.56,10.24,10.24,0,0,0-10.86,9.37Z" transform="translate(-70.32 -198.73)" fill="#944286"/><path d="M861.45,515.27H867v4.83h.14a16.34,16.34,0,0,1,5.29-4.19,14.87,14.87,0,0,1,6.64-1.49,18.91,18.91,0,0,1,7.14,1.31,16.06,16.06,0,0,1,5.5,3.66,16.88,16.88,0,0,1,3.55,5.54,19.54,19.54,0,0,1,0,13.91,17.11,17.11,0,0,1-3.51,5.54,16.08,16.08,0,0,1-5.29,3.66,16.5,16.5,0,0,1-6.54,1.31,15.38,15.38,0,0,1-7.84-2,12.68,12.68,0,0,1-4.94-4.79H867v22.08h-5.54ZM867,531.88a14,14,0,0,0,.82,4.87,11.25,11.25,0,0,0,6.11,6.53,12.78,12.78,0,0,0,9.72,0,11.26,11.26,0,0,0,3.73-2.63,11.41,11.41,0,0,0,2.38-3.9,15,15,0,0,0,0-9.73,11.41,11.41,0,0,0-2.38-3.9,11.26,11.26,0,0,0-3.73-2.63,12.78,12.78,0,0,0-9.72,0,11.25,11.25,0,0,0-6.11,6.53A13.93,13.93,0,0,0,867,531.88Z" transform="translate(-70.32 -198.73)" fill="#944286"/><path d="M905.62,494.82h5.53V548.5h-5.53Z" transform="translate(-70.32 -198.73)" fill="#944286"/><path d="M921.73,519.53a15.71,15.71,0,0,1,6.07-3.87,21.25,21.25,0,0,1,7.14-1.24q7.38,0,10.65,3.48t3.26,10.58v14.27q0,1.43.15,2.94c.09,1,.21,2,.35,2.81H944a11.41,11.41,0,0,1-.32-2.52c0-.92,0-1.74,0-2.45h-.14a13.1,13.1,0,0,1-4.37,4.19,12.55,12.55,0,0,1-6.56,1.63,17.24,17.24,0,0,1-4.8-.64,11.78,11.78,0,0,1-3.9-1.88,9.32,9.32,0,0,1-2.66-3.09,8.76,8.76,0,0,1-1-4.26,9.25,9.25,0,0,1,2.13-6.46,13,13,0,0,1,5.29-3.48,26.38,26.38,0,0,1,6.82-1.42q3.64-.29,6.71-.28h2.13v-1a6.79,6.79,0,0,0-2.17-5.46,9.08,9.08,0,0,0-6.07-1.85,16.27,16.27,0,0,0-5.29.89,12.7,12.7,0,0,0-4.58,2.73Zm16,13a19.94,19.94,0,0,0-8.45,1.49,5.07,5.07,0,0,0-3.12,4.9c0,2.09.69,3.57,2.09,4.44a9.61,9.61,0,0,0,5.22,1.32,10.21,10.21,0,0,0,4.22-.82,8.9,8.9,0,0,0,3-2.17,9.48,9.48,0,0,0,1.85-3.16,13.09,13.09,0,0,0,.71-3.87v-2.13Z" transform="translate(-70.32 -198.73)" fill="#944286"/><path d="M959,523.15c0-1.51,0-2.93-.14-4.26s-.15-2.53-.15-3.62H964c0,.9,0,1.8.07,2.7s.07,1.82.07,2.77h.14a9.29,9.29,0,0,1,1.6-2.34,11.18,11.18,0,0,1,2.45-2A13.26,13.26,0,0,1,971.5,515a13.5,13.5,0,0,1,3.84-.53,14.62,14.62,0,0,1,5.64,1,10.67,10.67,0,0,1,3.94,2.77,11.35,11.35,0,0,1,2.31,4.3A19.2,19.2,0,0,1,988,528V548.5h-5.53v-20a10.61,10.61,0,0,0-1.85-6.6q-1.85-2.41-5.75-2.42a10.86,10.86,0,0,0-4.65.92,8.39,8.39,0,0,0-3.2,2.63,12,12,0,0,0-1.84,4,20.85,20.85,0,0,0-.61,5.18V548.5H959Z" transform="translate(-70.32 -198.73)" fill="#944286"/><path d="M998.48,523.15c0-1.51-.05-2.93-.14-4.26s-.14-2.53-.14-3.62h5.25c0,.9,0,1.8.07,2.7s.07,1.82.07,2.77h.15a9.51,9.51,0,0,1,1.59-2.34,11.67,11.67,0,0,1,2.45-2,13.19,13.19,0,0,1,7-2,14.67,14.67,0,0,1,5.65,1,10.76,10.76,0,0,1,3.94,2.77,11.35,11.35,0,0,1,2.31,4.3,19.56,19.56,0,0,1,.74,5.5V548.5h-5.54v-20a10.61,10.61,0,0,0-1.84-6.6c-1.24-1.61-3.15-2.42-5.75-2.42a10.86,10.86,0,0,0-4.65.92,8.31,8.31,0,0,0-3.2,2.63,12,12,0,0,0-1.85,4,20.87,20.87,0,0,0-.6,5.18V548.5h-5.54Z" transform="translate(-70.32 -198.73)" fill="#944286"/><path d="M1037.18,502.28a3.94,3.94,0,0,1,1.17-2.84,4,4,0,0,1,5.75,0,4.08,4.08,0,1,1-6.92,2.84Zm1.28,13H1044V548.5h-5.53Z" transform="translate(-70.32 -198.73)" fill="#944286"/><path d="M1055,523.15c0-1.51,0-2.93-.14-4.26s-.15-2.53-.15-3.62H1060c0,.9,0,1.8.07,2.7s.07,1.82.07,2.77h.14a9.29,9.29,0,0,1,1.6-2.34,11.42,11.42,0,0,1,2.45-2,13.12,13.12,0,0,1,7-2,14.62,14.62,0,0,1,5.64,1,10.67,10.67,0,0,1,3.94,2.77,11.35,11.35,0,0,1,2.31,4.3,19.2,19.2,0,0,1,.75,5.5V548.5h-5.54v-20a10.61,10.61,0,0,0-1.85-6.6q-1.85-2.41-5.75-2.42a10.86,10.86,0,0,0-4.65.92,8.28,8.28,0,0,0-3.19,2.63,11.78,11.78,0,0,0-1.85,4,20.87,20.87,0,0,0-.6,5.18V548.5H1055Z" transform="translate(-70.32 -198.73)" fill="#944286"/><path d="M1127.63,547q0,9.09-4.65,13.81t-13.45,4.72a25.82,25.82,0,0,1-8.84-1.42,20.84,20.84,0,0,1-7.49-4.9l4-4.54a19.26,19.26,0,0,0,5.58,4.29,17,17,0,0,0,12.92.36,9.78,9.78,0,0,0,3.87-3,11.26,11.26,0,0,0,2-4.29,21.87,21.87,0,0,0,.57-5v-4.26H1122a12,12,0,0,1-5.18,4.68,15.21,15.21,0,0,1-6.53,1.49,19.59,19.59,0,0,1-7.18-1.27,16.89,16.89,0,0,1-5.6-3.55,15.82,15.82,0,0,1-3.63-5.4,17.85,17.85,0,0,1-1.27-6.82,20,20,0,0,1,1.27-7.31,15.45,15.45,0,0,1,3.59-5.5,15.73,15.73,0,0,1,5.57-3.44,20.65,20.65,0,0,1,7.25-1.21,15.16,15.16,0,0,1,3.4.39A14,14,0,0,1,1117,516a11.69,11.69,0,0,1,2.87,2.06A11.11,11.11,0,0,1,1122,521h.14v-5.68h5.54Zm-29.11-15.13a11.78,11.78,0,0,0,7.17,11,11.25,11.25,0,0,0,4.55.92,12.19,12.19,0,0,0,5-1,11.16,11.16,0,0,0,6-6.5,13.39,13.39,0,0,0,.78-4.58,13.68,13.68,0,0,0-.85-4.93,11.46,11.46,0,0,0-2.41-3.87,10.59,10.59,0,0,0-3.77-2.52,12.76,12.76,0,0,0-4.82-.89,11.72,11.72,0,0,0-4.8,1,10.9,10.9,0,0,0-3.69,2.63,12.06,12.06,0,0,0-2.38,3.9A13.49,13.49,0,0,0,1098.52,531.88Z" transform="translate(-70.32 -198.73)" fill="#944286"/></g></svg>